<svg xmlns="http://www.w3.org/2000/svg" width="709" height="709" viewBox="-12.753 -223.659 709 709"><path fill-rule="evenodd" clip-rule="evenodd" d="M92.185 68.357c-.863-8.719 3.688-12.015 0-18.699-3.871-7.966-17.388-6.291-22.432-13.09-8.002-24.956 8.556-40.892 28.045-35.53 25.286 6.958 21.254 63.495-5.613 67.319zm13.096-54.228C93.363-2.703 64.909 8.136 75.362 34.699c13.179 3.028 23.128 9.282 26.181 22.439 4.789-13.59 13.08-29.814 3.738-43.009z"/><path fill-rule="evenodd" clip-rule="evenodd" fill="#FFF" d="M101.542 57.139c-3.052-13.158-13.001-19.411-26.18-22.44-10.453-26.563 18.001-37.402 29.919-20.57 9.342 13.195 1.051 29.419-3.739 43.01z"/><path fill-rule="evenodd" clip-rule="evenodd" d="M540.992 180.56c16.867-.352 29.477 6.387 46.749 3.741 16.348-2.506 23.482-13.163 37.402-11.222 10.159 1.416 20.108 9.178 22.442 24.313 68.831 5.895 17.232 106.959-20.573 117.803-13.666 3.928-26.719-.612-43.011-1.863-36.224-2.793-78.953 5.603-121.554 5.603-91.009 0-191.231-1.886-276.76 1.88-32.325 1.416-56.217 3.738-86.021-3.743-12.67-3.186-27.038-9.287-37.396-9.353-15.181-.089-22.736 6.842-31.789 5.613-18.023-2.455-53.214-41.92-9.352-43.01C3.012 212.738 33.695 162.629 69.753 141.29c-4.147-23.875 1.67-38.091 9.347-54.231 24.898-8.39 53.706-20.026 80.406-5.611 22.853 12.338 28.349 51.472 74.805 41.141 11.486-2.555 18.4-10.217 28.05-14.959 31.8-15.632 83.515-27.039 132.77-24.31 52.086 2.884 100.864 30.97 129.03 63.581 5.792 6.703 15.808 19.812 16.831 33.659zm-379.61-87.89c-11.193-16.559-52.738-13-69.197-3.742-3.147 4.641 8.484 16.21 1.875 24.313-12.609 4.883-12.516-9.966-18.698-5.611-4.956 12.949 4.612 23.755 0 35.53-27.332 20.723-61.853 56.208-54.232 106.587 1.725 11.427 11.238 20.767 11.221 35.527-1.222 6.891-11.122 5.089-16.83 7.484 5.033 25.301 28.25 9.605 44.88 9.352 18.477-.288 38.087 11.69 59.833 14.96 29.677 4.457 60.735-.438 91.634-1.876 83.289-3.871 174.142-4.108 258.062-3.738 4.872-6.824-14.125-5.751-13.091-14.954 13.195-1.979 13.307 9.137 22.442 11.216 2.041-15.452-21.635-11.958-16.835-24.312 7.931 3.296 14.22 8.223 20.573 13.096-6.747-22.486-31.993-33.05-56.102-43.017-41.384-17.102-84.442-25.788-142.12-24.305-4.9.123-13.915 6.492-16.829-1.873 18.975-5.639 42.434-4.858 61.714-3.741 66.735 3.871 130.844 27.708 158.944 69.192.775 8.256-.503 14.449-3.738 18.697 31.048 1.007 68.506-6.481 100.98-3.738 24.368 2.063 48.242 6.758 59.84-13.091-9.685-28.077 3.069-58.559 13.09-78.538-9.163-3.384-13.284 9.001-16.829 0 2.544-9.816 19.28-2.568 24.313-5.607-8.39-19.279-25.838 1.579-39.271 3.738-6.122.981-13.312-1.543-22.437-1.869-21.249-.769-41.778 6.421-54.231 1.869-15.547-8.992-8.982-24.968-14.961-41.141-4.103-11.089-17.498-21.236-26.181-29.92-29.97-29.969-65.823-51.233-114.071-54.231-38.741-2.405-70.972 5.019-99.111 13.09-21.038 6.037-37.458 18.983-57.971 26.182-35.317 12.392-58.379-15.275-72.93-31.792-2.538 5.696 6.975 12.767-1.869 13.09-7.635-5.086 5.738-17.976-1.867-16.827zm428.228 97.241c-15.336 2.566-28.349-2.026-44.88-3.742-1.697 12.294 2.738 18.459 9.353 22.44 25.5-6.211 107.517 8.025 82.281-22.44 1.079 7.189-7.151 2.483-11.221 3.742-4.326 1.335-10.011 10.521-11.222 1.868 2.655-7.319 14.08-5.87 20.572-9.348-15.14-12.117-29.525 4.908-44.883 7.48zm61.714 100.978c11.172-19.378 31.353-45.421 20.566-74.8-.414-1.456-1.564-2.174-3.737-1.869-12.023 18.201-26.435 48.651-16.829 76.669zM8.04 277.797c-3.418 5.388-3.036 5.853-1.869 13.092 6.006-3.346 9.839-8.865 18.698-9.353-.288-2.201.321-5.309-1.869-5.607-4.314 4.75-8.34 2.687-14.96 1.868z"/><path fill-rule="evenodd" clip-rule="evenodd" fill="#FFF" d="M163.251 109.498c8.843-.323-.669-7.394 1.869-13.09 14.551 16.516 37.613 44.184 72.93 31.792 20.513-7.198 36.933-20.145 57.971-26.182 28.139-8.071 60.37-15.496 99.111-13.09 48.248 2.998 84.102 24.262 114.071 54.231 8.683 8.684 22.078 18.831 26.181 29.92 5.979 16.173-.586 32.148 14.961 41.141 12.453 4.552 32.982-2.638 54.231-1.869 9.125.326 16.314 2.851 22.437 1.869 13.434-2.159 30.882-23.018 39.271-3.738-5.032 3.039-21.769-4.209-24.313 5.607 3.545 9.001 7.666-3.384 16.829 0-10.021 19.979-22.774 50.461-13.09 78.538-11.598 19.849-35.472 15.153-59.84 13.091-32.475-2.743-69.933 4.745-100.98 3.738 3.235-4.248 4.514-10.441 3.738-18.697-28.1-41.484-92.209-65.321-158.944-69.192-19.28-1.117-42.74-1.897-61.714 3.741 2.914 8.365 11.929 1.996 16.829 1.873 57.678-1.483 100.736 7.203 142.12 24.305 24.108 9.967 49.354 20.53 56.102 43.017-6.354-4.873-12.643-9.8-20.573-13.096-4.8 12.354 18.876 8.859 16.835 24.312-9.136-2.079-9.247-13.195-22.442-11.216-1.034 9.203 17.963 8.13 13.091 14.954-83.92-.37-174.773-.133-258.062 3.738-30.898 1.438-61.957 6.333-91.634 1.876-21.746-3.27-41.357-15.248-59.833-14.96-16.631.254-39.848 15.949-44.88-9.352 5.708-2.396 15.607-.594 16.83-7.484.017-14.761-9.496-24.101-11.221-35.527-7.622-50.379 26.9-85.864 54.231-106.588 4.612-11.774-4.956-22.581 0-35.53 6.183-4.355 6.089 10.494 18.698 5.611 6.609-8.103-5.022-19.672-1.875-24.313 16.458-9.258 58.004-12.817 69.197 3.742 7.604-1.149-5.769 11.741 1.868 16.828zm-82.282 52.363c-1.857 7.698 7.683 8.923 11.216 5.606 2.555-8.388-7.526-9.076-11.216-5.606z"/><path fill-rule="evenodd" clip-rule="evenodd" d="M92.185 167.468c-3.533 3.316-13.073 2.092-11.216-5.606 3.69-3.471 13.771-2.783 11.216 5.606z"/><path fill-rule="evenodd" clip-rule="evenodd" fill="#FFF" d="M634.494 182.432c-6.492 3.478-17.917 2.028-20.572 9.348 1.211 8.653 6.896-.533 11.222-1.868 4.069-1.259 12.3 3.447 11.221-3.742 25.235 30.466-56.781 16.229-82.281 22.44-6.614-3.981-11.05-10.146-9.353-22.44 16.531 1.716 29.544 6.309 44.88 3.742 15.357-2.573 29.742-19.598 44.883-7.48zM668.153 214.22c2.173-.305 3.323.413 3.737 1.869 10.786 29.379-9.395 55.422-20.566 74.8-9.606-28.018 4.806-58.468 16.829-76.669zM23 275.929c2.19.299 1.582 3.406 1.869 5.607-8.859.487-12.692 6.007-18.698 9.353-1.167-7.239-1.549-7.704 1.869-13.092 6.62.819 10.646 2.882 14.96-1.868z"/><path fill="#16223A" d="M92.595 172.191a5.93 5.93 0 01-5.929 5.932 5.93 5.93 0 01-5.934-5.932V158.49a5.932 5.932 0 015.934-5.933 5.93 5.93 0 015.929 5.933v13.701z"/></svg>